<svg width="100" height="100" viewBox="0 0 100 100" fill="none" xmlns="http://www.w3.org/2000/svg">
<path d="M88.1906 68.8083C85.065 66.9322 78.5639 63.0257 78.5639 52.864C78.5639 44.2876 84.3036 39.9594 87.3863 37.6342L87.4507 37.5854C88.6884 36.6522 88.9832 34.9147 88.1242 33.6242C81.2366 23.283 69.4077 22.9843 67.1079 23.0272H67.0942C65.5168 23.0292 64.0115 23.2107 62.5844 23.4977C63.1115 23.076 63.623 22.627 64.115 22.1506C69.0426 17.3832 71.7504 10.3491 71.5415 2.84643C71.4966 1.26313 70.2003 0 68.615 0C63.2853 0 57.2254 3.18418 52.7996 8.31088C48.3405 13.4766 46.2575 19.6654 47.0872 25.288C47.1555 25.7546 47.3351 26.1802 47.5928 26.5452C46.8119 26.2836 45.9861 25.9791 45.17 25.6784C42.0698 24.5363 38.5537 23.242 35.2622 23.242C35.1958 23.242 28.5034 23.2908 21.8207 27.4413C15.9756 31.0745 9.00589 38.6357 9.00589 54.0373C9.00589 62.0476 12.1354 73.2615 16.979 82.609C20.3252 89.0672 27.2695 99.9063 36.1876 99.957H36.2832C42.7863 99.957 48.1746 96.1169 51.839 96.1169C58.0981 96.1169 60.3256 100 67.0942 100C73.1619 100 79.0422 95.3906 84.573 86.3028C86.6034 82.9643 88.1828 79.663 89.1492 77.4804C90.9941 73.322 90.9941 72.7676 90.9941 72.3615C90.9941 70.4931 89.5689 69.6361 88.1906 68.8083ZM57.2332 12.1374C59.6365 9.3534 62.6645 7.28788 65.5324 6.37617C64.9838 10.923 63.0627 15.0209 60.0425 17.9415C57.9263 19.9895 55.3863 21.3209 52.8074 21.7797C53.0807 18.5623 54.6191 15.1654 57.2332 12.1374ZM79.2862 83.7179C75.1064 90.4416 70.7762 94.1431 67.0942 94.1431C62.028 94.1431 59.6599 90.26 51.839 90.26C46.562 90.26 41.5271 94.1275 36.2208 94.1002C32.0819 94.0768 26.7014 88.6416 22.1799 79.9149C17.7346 71.3385 14.8627 61.1807 14.8627 54.0373C14.8627 43.9245 18.1875 36.6874 24.7394 32.5251C29.8407 29.2862 35.0591 29.1047 35.2798 29.0988C39.852 29.1105 46.1989 33.1576 50.8239 33.1576C54.9881 33.1576 60.5638 28.8841 67.1157 28.8841H67.2231C68.8122 28.8528 76.3148 29.0305 81.586 34.7507C77.8611 37.888 72.707 43.5301 72.707 52.864C72.707 65.5421 80.7251 71.1081 84.5125 73.4294C83.5695 75.7136 81.7715 79.7216 79.2862 83.7179Z" fill="#C9C993"/>
</svg>
