<svg width="164" height="193" viewBox="0 0 164 193" fill="none" xmlns="http://www.w3.org/2000/svg">
<rect x="16.5" y="1.5" width="129.997" height="79.4173" stroke="black" stroke-width="3"/>
<line x1="16.8702" y1="19.4898" x2="148" y2="19.4898" stroke="black" stroke-width="3"/>
<rect x="21.244" y="32.9669" width="48.0788" height="8.24173" fill="#C4C4C4"/>
<rect x="21.244" y="50.1996" width="28.7224" height="8.24173" fill="#C4C4C4"/>
<rect x="77.44" y="32.9669" width="21.2296" height="8.24173" fill="#C4C4C4"/>
<path d="M18.7812 132.789V137.799H15.8516V123.58H21.3984C22.4661 123.58 23.4036 123.776 24.2109 124.166C25.0247 124.557 25.6497 125.113 26.0859 125.836C26.5221 126.552 26.7402 127.369 26.7402 128.287C26.7402 129.68 26.2617 130.781 25.3047 131.588C24.3542 132.389 23.0358 132.789 21.3496 132.789H18.7812ZM18.7812 130.416H21.3984C22.1732 130.416 22.7624 130.234 23.166 129.869C23.5762 129.505 23.7812 128.984 23.7812 128.307C23.7812 127.61 23.5762 127.047 23.166 126.617C22.7559 126.188 22.1895 125.966 21.4668 125.953H18.7812V130.416ZM37.0508 134.869H31.9141L30.9375 137.799H27.8223L33.1152 123.58H35.8301L41.1523 137.799H38.0371L37.0508 134.869ZM32.7051 132.496H36.2598L34.4727 127.174L32.7051 132.496ZM55.5156 136.002C54.9883 136.634 54.2428 137.125 53.2793 137.477C52.3158 137.822 51.248 137.994 50.0762 137.994C48.8457 137.994 47.765 137.727 46.834 137.194C45.9095 136.653 45.1934 135.872 44.6855 134.85C44.1842 133.828 43.9271 132.626 43.9141 131.246V130.279C43.9141 128.86 44.1517 127.633 44.627 126.598C45.1087 125.556 45.7988 124.762 46.6973 124.215C47.6022 123.662 48.6602 123.385 49.8711 123.385C51.5573 123.385 52.8757 123.789 53.8262 124.596C54.7767 125.397 55.3398 126.565 55.5156 128.102H52.6641C52.5339 127.288 52.2441 126.692 51.7949 126.315C51.3522 125.937 50.7402 125.748 49.959 125.748C48.9629 125.748 48.2044 126.123 47.6836 126.871C47.1628 127.62 46.8991 128.733 46.8926 130.211V131.119C46.8926 132.61 47.1758 133.736 47.7422 134.498C48.3086 135.26 49.1387 135.641 50.2324 135.641C51.3327 135.641 52.1172 135.406 52.5859 134.938V132.486H49.9199V130.328H55.5156V136.002ZM70.6602 123.58V132.945C70.6602 134.501 70.1719 135.732 69.1953 136.637C68.2253 137.542 66.8971 137.994 65.2109 137.994C63.5508 137.994 62.2324 137.555 61.2559 136.676C60.2793 135.797 59.7812 134.589 59.7617 133.053V123.58H62.6914V132.965C62.6914 133.896 62.9128 134.576 63.3555 135.006C63.8047 135.429 64.4232 135.641 65.2109 135.641C66.8581 135.641 67.6947 134.775 67.7207 133.043V123.58H70.6602ZM83.6172 131.637H77.9922V135.445H84.5938V137.799H75.0625V123.58H84.5742V125.953H77.9922V129.342H83.6172V131.637ZM106.455 133.063C106.344 134.593 105.778 135.797 104.756 136.676C103.74 137.555 102.399 137.994 100.732 137.994C98.9095 137.994 97.474 137.382 96.4258 136.158C95.3841 134.928 94.8633 133.242 94.8633 131.1V130.231C94.8633 128.863 95.1042 127.659 95.5859 126.617C96.0677 125.576 96.7546 124.778 97.6465 124.225C98.5449 123.665 99.5866 123.385 100.771 123.385C102.412 123.385 103.734 123.824 104.736 124.703C105.739 125.582 106.318 126.816 106.475 128.404H103.545C103.473 127.486 103.216 126.822 102.773 126.412C102.337 125.996 101.67 125.787 100.771 125.787C99.7949 125.787 99.0625 126.139 98.5742 126.842C98.0924 127.539 97.8451 128.623 97.832 130.094V131.168C97.832 132.705 98.0632 133.828 98.5254 134.537C98.9941 135.247 99.7298 135.602 100.732 135.602C101.637 135.602 102.311 135.397 102.754 134.986C103.203 134.57 103.46 133.929 103.525 133.063H106.455ZM122.059 131.012C122.059 132.412 121.811 133.639 121.316 134.694C120.822 135.748 120.112 136.562 119.188 137.135C118.27 137.708 117.215 137.994 116.023 137.994C114.845 137.994 113.794 137.711 112.869 137.145C111.945 136.578 111.229 135.771 110.721 134.723C110.213 133.668 109.956 132.457 109.949 131.09V130.387C109.949 128.987 110.2 127.757 110.701 126.695C111.209 125.628 111.922 124.811 112.84 124.244C113.764 123.671 114.819 123.385 116.004 123.385C117.189 123.385 118.24 123.671 119.158 124.244C120.083 124.811 120.796 125.628 121.297 126.695C121.805 127.757 122.059 128.984 122.059 130.377V131.012ZM119.09 130.367C119.09 128.876 118.823 127.744 118.289 126.969C117.755 126.194 116.993 125.807 116.004 125.807C115.021 125.807 114.262 126.191 113.729 126.959C113.195 127.721 112.924 128.841 112.918 130.319V131.012C112.918 132.464 113.185 133.59 113.719 134.391C114.253 135.192 115.021 135.592 116.023 135.592C117.007 135.592 117.762 135.208 118.289 134.44C118.816 133.665 119.083 132.539 119.09 131.061V130.367ZM130.016 123.58L133.668 133.893L137.301 123.58H141.148V137.799H138.209V133.912L138.502 127.203L134.664 137.799H132.652L128.824 127.213L129.117 133.912V137.799H126.188V123.58H130.016ZM32.3301 160.799H22.584V158.865L27.1836 153.963C27.8151 153.273 28.2806 152.671 28.5801 152.156C28.8861 151.642 29.0391 151.154 29.0391 150.692C29.0391 150.06 28.8796 149.565 28.5605 149.207C28.2415 148.843 27.7858 148.66 27.1934 148.66C26.5553 148.66 26.0508 148.882 25.6797 149.324C25.3151 149.761 25.1328 150.337 25.1328 151.053H22.3008C22.3008 150.187 22.5059 149.396 22.916 148.68C23.3327 147.964 23.9186 147.404 24.6738 147C25.429 146.59 26.2852 146.385 27.2422 146.385C28.707 146.385 29.8431 146.736 30.6504 147.44C31.4642 148.143 31.8711 149.136 31.8711 150.418C31.8711 151.121 31.6888 151.837 31.3242 152.567C30.9596 153.296 30.3346 154.145 29.4492 155.115L26.2168 158.524H32.3301V160.799ZM54.5137 156.063C54.403 157.593 53.8366 158.797 52.8145 159.676C51.7988 160.555 50.4577 160.994 48.791 160.994C46.9681 160.994 45.5326 160.382 44.4844 159.158C43.4427 157.928 42.9219 156.242 42.9219 154.1V153.231C42.9219 151.863 43.1628 150.659 43.6445 149.617C44.1263 148.576 44.8132 147.778 45.7051 147.225C46.6035 146.665 47.6452 146.385 48.8301 146.385C50.4707 146.385 51.7923 146.824 52.7949 147.703C53.7975 148.582 54.377 149.816 54.5332 151.404H51.6035C51.5319 150.486 51.2747 149.822 50.832 149.412C50.3958 148.996 49.7285 148.787 48.8301 148.787C47.8535 148.787 47.1211 149.139 46.6328 149.842C46.151 150.539 45.9036 151.623 45.8906 153.094V154.168C45.8906 155.705 46.1217 156.828 46.584 157.537C47.0527 158.247 47.7884 158.602 48.791 158.602C49.696 158.602 50.3698 158.397 50.8125 157.986C51.2617 157.57 51.5189 156.929 51.584 156.063H54.5137ZM66.4648 157.869H61.3281L60.3516 160.799H57.2363L62.5293 146.58H65.2441L70.5664 160.799H67.4512L66.4648 157.869ZM62.1191 155.496H65.6738L63.8867 150.174L62.1191 155.496ZM79.1582 155.594H76.8242V160.799H73.8945V146.58H79.1777C80.8574 146.58 82.153 146.955 83.0645 147.703C83.9759 148.452 84.4316 149.51 84.4316 150.877C84.4316 151.847 84.2201 152.658 83.7969 153.309C83.3802 153.953 82.7454 154.468 81.8926 154.852L84.9688 160.662V160.799H81.8242L79.1582 155.594ZM76.8242 153.221H79.1875C79.9232 153.221 80.4928 153.035 80.8965 152.664C81.3001 152.287 81.502 151.769 81.502 151.111C81.502 150.441 81.3099 149.914 80.9258 149.529C80.5482 149.145 79.9655 148.953 79.1777 148.953H76.8242V153.221ZM98.8828 148.953H94.5273V160.799H91.5977V148.953H87.3008V146.58H98.8828V148.953ZM113.969 154.012C113.969 155.412 113.721 156.639 113.227 157.694C112.732 158.748 112.022 159.562 111.098 160.135C110.18 160.708 109.125 160.994 107.934 160.994C106.755 160.994 105.704 160.711 104.779 160.145C103.855 159.578 103.139 158.771 102.631 157.723C102.123 156.668 101.866 155.457 101.859 154.09V153.387C101.859 151.987 102.11 150.757 102.611 149.695C103.119 148.628 103.832 147.811 104.75 147.244C105.674 146.671 106.729 146.385 107.914 146.385C109.099 146.385 110.15 146.671 111.068 147.244C111.993 147.811 112.706 148.628 113.207 149.695C113.715 150.757 113.969 151.984 113.969 153.377V154.012ZM111 153.367C111 151.876 110.733 150.744 110.199 149.969C109.665 149.194 108.904 148.807 107.914 148.807C106.931 148.807 106.173 149.191 105.639 149.959C105.105 150.721 104.835 151.841 104.828 153.319V154.012C104.828 155.464 105.095 156.59 105.629 157.391C106.163 158.192 106.931 158.592 107.934 158.592C108.917 158.592 109.672 158.208 110.199 157.44C110.727 156.665 110.993 155.539 111 154.061V153.367ZM111.586 142.908C111.586 143.644 111.371 144.263 110.941 144.764C110.512 145.259 109.988 145.506 109.369 145.506C109.122 145.506 108.9 145.48 108.705 145.428C108.516 145.369 108.253 145.249 107.914 145.067C107.576 144.884 107.331 144.774 107.182 144.735C107.032 144.689 106.869 144.666 106.693 144.666C106.465 144.666 106.27 144.748 106.107 144.91C105.951 145.073 105.873 145.304 105.873 145.604L104.232 145.506C104.232 144.783 104.444 144.168 104.867 143.66C105.297 143.152 105.821 142.899 106.439 142.899C106.635 142.899 106.817 142.925 106.986 142.977C107.162 143.022 107.445 143.139 107.836 143.328C108.227 143.517 108.497 143.631 108.646 143.67C108.796 143.709 108.952 143.729 109.115 143.729C109.343 143.729 109.538 143.651 109.701 143.494C109.87 143.332 109.955 143.1 109.955 142.801L111.586 142.908ZM126.652 154.637H121.027V158.445H127.629V160.799H118.098V146.58H127.609V148.953H121.027V152.342H126.652V154.637ZM138.721 157.069C138.721 156.515 138.525 156.092 138.135 155.799C137.744 155.5 137.041 155.187 136.025 154.861C135.01 154.529 134.206 154.204 133.613 153.885C131.999 153.013 131.191 151.837 131.191 150.36C131.191 149.591 131.406 148.908 131.836 148.309C132.272 147.703 132.894 147.231 133.701 146.893C134.515 146.554 135.426 146.385 136.436 146.385C137.451 146.385 138.356 146.57 139.15 146.942C139.945 147.306 140.56 147.824 140.996 148.494C141.439 149.165 141.66 149.927 141.66 150.779H138.73C138.73 150.128 138.525 149.624 138.115 149.266C137.705 148.901 137.129 148.719 136.387 148.719C135.671 148.719 135.114 148.872 134.717 149.178C134.32 149.477 134.121 149.875 134.121 150.369C134.121 150.832 134.352 151.219 134.814 151.531C135.283 151.844 135.97 152.137 136.875 152.41C138.542 152.912 139.756 153.533 140.518 154.276C141.279 155.018 141.66 155.942 141.66 157.049C141.66 158.279 141.195 159.246 140.264 159.949C139.333 160.646 138.079 160.994 136.504 160.994C135.41 160.994 134.414 160.796 133.516 160.399C132.617 159.995 131.93 159.445 131.455 158.748C130.986 158.052 130.752 157.244 130.752 156.326H133.691C133.691 157.895 134.629 158.68 136.504 158.68C137.201 158.68 137.744 158.54 138.135 158.26C138.525 157.973 138.721 157.576 138.721 157.069ZM18.8594 183.799V169.58H23.2344C24.4844 169.58 25.6009 169.863 26.584 170.43C27.5736 170.99 28.3451 171.791 28.8984 172.832C29.4518 173.867 29.7285 175.046 29.7285 176.367V177.022C29.7285 178.343 29.4551 179.518 28.9082 180.547C28.3678 181.576 27.6029 182.373 26.6133 182.94C25.6237 183.506 24.5072 183.792 23.2637 183.799H18.8594ZM21.7891 171.953V181.445H23.2051C24.3509 181.445 25.2266 181.071 25.832 180.322C26.4375 179.574 26.7467 178.503 26.7598 177.11V176.358C26.7598 174.912 26.4603 173.819 25.8613 173.076C25.2624 172.328 24.3867 171.953 23.2344 171.953H21.7891ZM42.4219 177.637H36.7969V181.445H43.3984V183.799H33.8672V169.58H43.3789V171.953H36.7969V175.342H42.4219V177.637ZM65.2598 179.063C65.1491 180.593 64.5827 181.797 63.5605 182.676C62.5449 183.555 61.2038 183.994 59.5371 183.994C57.7142 183.994 56.2786 183.382 55.2305 182.158C54.1888 180.928 53.668 179.242 53.668 177.1V176.231C53.668 174.863 53.9089 173.659 54.3906 172.617C54.8724 171.576 55.5592 170.778 56.4512 170.225C57.3496 169.665 58.3913 169.385 59.5762 169.385C61.2168 169.385 62.5384 169.824 63.541 170.703C64.5436 171.582 65.123 172.816 65.2793 174.404H62.3496C62.278 173.486 62.0208 172.822 61.5781 172.412C61.1419 171.996 60.4746 171.787 59.5762 171.787C58.5996 171.787 57.8672 172.139 57.3789 172.842C56.8971 173.539 56.6497 174.623 56.6367 176.094V177.168C56.6367 178.705 56.8678 179.828 57.3301 180.537C57.7988 181.247 58.5345 181.602 59.5371 181.602C60.4421 181.602 61.1159 181.397 61.5586 180.986C62.0078 180.57 62.265 179.929 62.3301 179.063H65.2598ZM74.4473 178.594H72.1133V183.799H69.1836V169.58H74.4668C76.1465 169.58 77.4421 169.955 78.3535 170.703C79.265 171.452 79.7207 172.51 79.7207 173.877C79.7207 174.847 79.5091 175.658 79.0859 176.309C78.6693 176.953 78.0345 177.468 77.1816 177.852L80.2578 183.662V183.799H77.1133L74.4473 178.594ZM72.1133 176.221H74.4766C75.2122 176.221 75.7819 176.035 76.1855 175.664C76.5892 175.287 76.791 174.769 76.791 174.111C76.791 173.441 76.599 172.914 76.2148 172.529C75.8372 172.145 75.2546 171.953 74.4668 171.953H72.1133V176.221ZM92.5117 177.637H86.8867V181.445H93.4883V183.799H83.957V169.58H93.4688V171.953H86.8867V175.342H92.5117V177.637ZM89.4551 165.742H92.5312L89.8262 168.77H87.5312L89.4551 165.742ZM97.207 183.799V169.58H101.582C102.832 169.58 103.949 169.863 104.932 170.43C105.921 170.99 106.693 171.791 107.246 172.832C107.799 173.867 108.076 175.046 108.076 176.367V177.022C108.076 178.343 107.803 179.518 107.256 180.547C106.715 181.576 105.951 182.373 104.961 182.94C103.971 183.506 102.855 183.792 101.611 183.799H97.207ZM100.137 171.953V181.445H101.553C102.699 181.445 103.574 181.071 104.18 180.322C104.785 179.574 105.094 178.503 105.107 177.11V176.358C105.107 174.912 104.808 173.819 104.209 173.076C103.61 172.328 102.734 171.953 101.582 171.953H100.137ZM115.33 183.799H112.4V169.58H115.33V183.799ZM130.465 171.953H126.109V183.799H123.18V171.953H118.883V169.58H130.465V171.953ZM145.551 177.012C145.551 178.412 145.303 179.639 144.809 180.694C144.314 181.748 143.604 182.562 142.68 183.135C141.762 183.708 140.707 183.994 139.516 183.994C138.337 183.994 137.286 183.711 136.361 183.145C135.437 182.578 134.721 181.771 134.213 180.723C133.705 179.668 133.448 178.457 133.441 177.09V176.387C133.441 174.987 133.692 173.757 134.193 172.695C134.701 171.628 135.414 170.811 136.332 170.244C137.257 169.671 138.311 169.385 139.496 169.385C140.681 169.385 141.732 169.671 142.65 170.244C143.575 170.811 144.288 171.628 144.789 172.695C145.297 173.757 145.551 174.984 145.551 176.377V177.012ZM142.582 176.367C142.582 174.876 142.315 173.744 141.781 172.969C141.247 172.194 140.486 171.807 139.496 171.807C138.513 171.807 137.755 172.191 137.221 172.959C136.687 173.721 136.417 174.841 136.41 176.319V177.012C136.41 178.464 136.677 179.59 137.211 180.391C137.745 181.192 138.513 181.592 139.516 181.592C140.499 181.592 141.254 181.208 141.781 180.44C142.309 179.665 142.576 178.539 142.582 177.061V176.367Z" fill="black"/>
</svg>
