<svg width="1440" height="823" viewBox="0 0 1440 823" fill="none" xmlns="http://www.w3.org/2000/svg">
<rect width="1440" height="823" fill="#F3F3DF" fill-opacity="0.95"/>
<path d="M199.021 385.96C184.274 385.867 172.234 381.153 162.901 371.82C153.661 362.487 149.041 350.213 149.041 335C149.041 319.693 153.661 307.373 162.901 298.04C172.234 288.707 184.554 284.04 199.861 284.04C212.367 284.04 223.427 287.213 233.041 293.56L235.841 313.3H234.581C232.527 305.273 228.374 299.113 222.121 294.82C215.867 290.433 208.447 288.24 199.861 288.24C187.634 288.24 177.834 292.487 170.461 300.98C163.181 309.473 159.541 320.72 159.541 334.72C159.541 348.72 163.134 360.013 170.321 368.6C177.601 377.093 187.167 381.48 199.021 381.76C209.474 381.76 218.201 378.913 225.201 373.22C232.761 367.06 237.334 357.027 238.921 343.12H240.041L238.361 365.1C229.867 379.007 216.754 385.96 199.021 385.96ZM277.668 298.18C287.001 288.753 299.134 284.04 314.068 284.04C329.001 284.04 341.134 288.753 350.468 298.18C359.801 307.513 364.468 319.787 364.468 335C364.468 350.213 359.801 362.533 350.468 371.96C341.134 381.293 329.001 385.96 314.068 385.96C299.134 385.96 287.001 381.293 277.668 371.96C268.428 362.533 263.808 350.213 263.808 335C263.808 319.787 268.428 307.513 277.668 298.18ZM285.368 368.88C292.648 377.467 302.214 381.76 314.068 381.76C326.014 381.76 335.581 377.467 342.768 368.88C350.048 360.293 353.688 349 353.688 335C353.688 325.76 352.054 317.593 348.788 310.5C345.521 303.407 340.854 297.947 334.788 294.12C328.814 290.2 321.908 288.24 314.068 288.24C302.214 288.24 292.648 292.533 285.368 301.12C278.181 309.707 274.588 321 274.588 335C274.588 349 278.181 360.293 285.368 368.88ZM385.798 382.6C388.225 382.6 390.278 381.76 391.958 380.08C393.731 378.307 394.665 376.207 394.758 373.78V296.22C394.665 293.793 393.731 291.74 391.958 290.06C390.278 288.287 388.225 287.4 385.798 287.4H383.978V286H414.638V287.4H412.818C409.458 287.4 406.891 288.847 405.118 291.74C404.278 293.14 403.858 294.633 403.858 296.22V379.66H423.878C430.785 379.66 436.058 378.12 439.698 375.04C443.338 371.96 446.371 367.387 448.798 361.32H450.198L442.078 384H383.978V382.6H385.798ZM469.361 382.6C471.787 382.6 473.841 381.76 475.521 380.08C477.294 378.307 478.227 376.207 478.321 373.78V295.38C478.041 293.14 477.061 291.273 475.381 289.78C473.701 288.193 471.694 287.4 469.361 287.4H467.681L467.541 286H508.561C511.454 286 514.581 285.72 517.941 285.16C521.394 284.6 523.821 284.04 525.221 283.48V301.12H523.821V298.6C523.821 296.36 523.027 294.447 521.441 292.86C519.947 291.273 518.127 290.433 515.981 290.34H487.421V333.6H511.081C512.947 333.507 514.534 332.807 515.841 331.5C517.147 330.193 517.801 328.56 517.801 326.6V324.64H519.201V346.76H517.801V344.66C517.801 342.793 517.147 341.207 515.841 339.9C514.627 338.593 513.087 337.893 511.221 337.8H487.421V379.66H507.441C514.347 379.66 519.621 378.12 523.261 375.04C526.901 371.96 529.934 367.387 532.361 361.32H533.761L525.641 384H467.541V382.6H469.361ZM599.367 391.98C602.26 390.953 604.874 390.767 607.207 391.42C611.78 392.633 614.067 395.48 614.067 399.96C614.067 404.44 612.014 407.66 607.907 409.62C605.574 410.74 603.24 411.3 600.907 411.3C598.667 411.3 596.474 410.973 594.327 410.32L594.467 408.92C597.827 408.92 600.767 408.22 603.287 406.82C605.807 405.42 607.067 403.273 607.067 400.38C607.067 396.273 604.687 394.22 599.927 394.22C598.434 394.22 596.894 394.593 595.307 395.34L594.607 393.94L600.767 385.96C586.487 385.493 574.867 380.64 565.907 371.4C557.04 362.067 552.607 349.84 552.607 334.72C552.607 319.6 557.227 307.373 566.467 298.04C575.8 288.707 588.12 284.04 603.427 284.04C615.934 284.04 626.994 287.213 636.607 293.56L639.407 313.3H638.147C636.094 305.273 631.94 299.113 625.687 294.82C619.434 290.433 612.014 288.24 603.427 288.24C591.2 288.24 581.4 292.487 574.027 300.98C566.747 309.473 563.107 320.72 563.107 334.72C563.107 348.72 566.7 360.013 573.887 368.6C581.167 377.093 590.734 381.48 602.587 381.76C613.04 381.76 621.767 378.913 628.767 373.22C636.327 367.06 640.9 357.027 642.487 343.12H643.607L641.927 365.1C633.807 378.447 621.394 385.4 604.687 385.96L599.367 391.98ZM717.494 270.74C721.321 270.74 723.888 269.153 725.194 265.98H726.594C726.128 270.647 724.541 273.913 721.834 275.78C720.528 276.62 718.941 277.04 717.074 277.04C715.208 277.04 712.314 276.013 708.394 273.96C704.568 271.907 701.954 270.88 700.554 270.88C697.101 270.88 694.581 272.793 692.994 276.62H691.594C692.154 272.98 693.228 270.087 694.814 267.94C696.401 265.793 698.314 264.72 700.554 264.72C702.794 264.72 705.781 265.747 709.514 267.8C713.341 269.76 716.001 270.74 717.494 270.74ZM757.814 382.6H758.934V384H727.434V382.6H728.694C730.654 382.6 732.101 381.993 733.034 380.78C734.061 379.473 734.574 378.26 734.574 377.14C734.574 376.02 734.388 374.9 734.014 373.78L725.054 349.98H687.254L677.874 373.92C677.501 375.04 677.314 376.16 677.314 377.28C677.314 378.307 677.781 379.473 678.714 380.78C679.741 381.993 681.234 382.6 683.194 382.6H684.454V384H656.314V382.6H657.574C659.908 382.6 662.194 381.853 664.434 380.36C666.674 378.867 668.494 376.673 669.894 373.78L701.534 298.46C704.988 290.9 706.714 286.093 706.714 284.04H707.974L745.494 373.78C746.801 376.673 748.574 378.867 750.814 380.36C753.054 381.853 755.388 382.6 757.814 382.6ZM688.934 345.78H723.374L706.574 300.84L688.934 345.78ZM782.98 298.18C792.314 288.753 804.447 284.04 819.38 284.04C834.314 284.04 846.447 288.753 855.78 298.18C865.114 307.513 869.78 319.787 869.78 335C869.78 350.213 865.114 362.533 855.78 371.96C846.447 381.293 834.314 385.96 819.38 385.96C804.447 385.96 792.314 381.293 782.98 371.96C773.74 362.533 769.12 350.213 769.12 335C769.12 319.787 773.74 307.513 782.98 298.18ZM790.68 368.88C797.96 377.467 807.527 381.76 819.38 381.76C831.327 381.76 840.894 377.467 848.08 368.88C855.36 360.293 859 349 859 335C859 325.76 857.367 317.593 854.1 310.5C850.834 303.407 846.167 297.947 840.1 294.12C834.127 290.2 827.22 288.24 819.38 288.24C807.527 288.24 797.96 292.533 790.68 301.12C783.494 309.707 779.9 321 779.9 335C779.9 349 783.494 360.293 790.68 368.88ZM968.185 384H934.025L934.165 382.6H935.845C938.272 382.6 940.325 381.76 942.005 380.08C943.778 378.4 944.712 376.347 944.805 373.92V296.08C944.805 293.653 943.918 291.6 942.145 289.92C940.372 288.24 938.272 287.4 935.845 287.4H934.165L934.025 286H961.885C971.498 286 978.965 288.147 984.285 292.44C989.605 296.64 992.265 302.287 992.265 309.38C992.265 314.98 990.772 319.647 987.785 323.38C984.798 327.02 981.158 329.447 976.865 330.66C984.238 331.78 990.072 334.813 994.365 339.76C998.658 344.707 1000.81 350.96 1000.81 358.52C1000.81 365.987 997.912 372.1 992.125 376.86C986.432 381.62 978.452 384 968.185 384ZM953.905 378.96H967.625C967.718 378.96 967.812 378.96 967.905 378.96C974.998 378.96 980.505 377.047 984.425 373.22C988.345 369.3 990.305 363.793 990.305 356.7C990.305 352.687 989.605 349.187 988.205 346.2C986.898 343.12 985.218 340.693 983.165 338.92C977.752 334.44 969.632 332.2 958.805 332.2C958.805 332.2 958.758 332.2 958.665 332.2V330.94C958.758 330.94 959.178 330.94 959.925 330.94C960.765 330.94 961.932 330.847 963.425 330.66C964.918 330.473 966.598 330.147 968.465 329.68C970.332 329.213 972.012 328.467 973.505 327.44C974.998 326.413 976.398 325.2 977.705 323.8C980.412 320.72 981.765 316.147 981.765 310.08C981.765 303.92 979.992 299.113 976.445 295.66C972.992 292.207 967.952 290.48 961.325 290.48H953.905V378.96ZM1114.9 382.6H1116.02V384H1084.52V382.6H1085.78C1087.74 382.6 1089.18 381.993 1090.12 380.78C1091.14 379.473 1091.66 378.26 1091.66 377.14C1091.66 376.02 1091.47 374.9 1091.1 373.78L1082.14 349.98H1044.34L1034.96 373.92C1034.58 375.04 1034.4 376.16 1034.4 377.28C1034.4 378.307 1034.86 379.473 1035.8 380.78C1036.82 381.993 1038.32 382.6 1040.28 382.6H1041.54V384H1013.4V382.6H1014.66C1016.99 382.6 1019.28 381.853 1021.52 380.36C1023.76 378.867 1025.58 376.673 1026.98 373.78L1058.62 298.46C1062.07 290.9 1063.8 286.093 1063.8 284.04H1065.06L1102.58 373.78C1103.88 376.673 1105.66 378.867 1107.9 380.36C1110.14 381.853 1112.47 382.6 1114.9 382.6ZM1046.02 345.78H1080.46L1063.66 300.84L1046.02 345.78ZM1163.88 384H1129.72L1129.86 382.6H1131.54C1133.97 382.6 1136.02 381.76 1137.7 380.08C1139.48 378.4 1140.41 376.347 1140.5 373.92V296.08C1140.5 293.653 1139.62 291.6 1137.84 289.92C1136.07 288.24 1133.97 287.4 1131.54 287.4H1129.86L1129.72 286H1157.58C1167.2 286 1174.66 288.147 1179.98 292.44C1185.3 296.64 1187.96 302.287 1187.96 309.38C1187.96 314.98 1186.47 319.647 1183.48 323.38C1180.5 327.02 1176.86 329.447 1172.56 330.66C1179.94 331.78 1185.77 334.813 1190.06 339.76C1194.36 344.707 1196.5 350.96 1196.5 358.52C1196.5 365.987 1193.61 372.1 1187.82 376.86C1182.13 381.62 1174.15 384 1163.88 384ZM1149.6 378.96H1163.32C1163.42 378.96 1163.51 378.96 1163.6 378.96C1170.7 378.96 1176.2 377.047 1180.12 373.22C1184.04 369.3 1186 363.793 1186 356.7C1186 352.687 1185.3 349.187 1183.9 346.2C1182.6 343.12 1180.92 340.693 1178.86 338.92C1173.45 334.44 1165.33 332.2 1154.5 332.2C1154.5 332.2 1154.46 332.2 1154.36 332.2V330.94C1154.46 330.94 1154.88 330.94 1155.62 330.94C1156.46 330.94 1157.63 330.847 1159.12 330.66C1160.62 330.473 1162.3 330.147 1164.16 329.68C1166.03 329.213 1167.71 328.467 1169.2 327.44C1170.7 326.413 1172.1 325.2 1173.4 323.8C1176.11 320.72 1177.46 316.147 1177.46 310.08C1177.46 303.92 1175.69 299.113 1172.14 295.66C1168.69 292.207 1163.65 290.48 1157.02 290.48H1149.6V378.96ZM1301.02 287.4H1299.06C1296.26 287.4 1293.6 288.193 1291.08 289.78C1288.65 291.273 1286.6 293.187 1284.92 295.52L1257.34 340.32V373.78C1257.34 376.207 1258.18 378.307 1259.86 380.08C1261.63 381.76 1263.78 382.6 1266.3 382.6H1267.98V384H1237.46V382.6H1239.28C1241.71 382.6 1243.76 381.76 1245.44 380.08C1247.21 378.4 1248.15 376.347 1248.24 373.92V340.18L1221.5 295.52C1220.1 293.28 1218.09 291.367 1215.48 289.78C1212.96 288.193 1210.3 287.4 1207.5 287.4H1205.54V286H1239.98V287.4H1238.16C1236.11 287.4 1234.52 288.333 1233.4 290.2C1232.84 291.227 1232.56 292.253 1232.56 293.28C1232.56 294.213 1232.79 295.147 1233.26 296.08L1254.26 335.28L1276.66 295.94C1277.13 295.007 1277.36 294.073 1277.36 293.14C1277.36 292.207 1277.03 291.227 1276.38 290.2C1275.26 288.333 1273.67 287.4 1271.62 287.4H1269.94V286H1301.02V287.4ZM263.185 472.212C263.049 471.577 262.981 470.353 262.981 468.54C262.981 466.727 263.321 464.8 264.001 462.76H264.613C264.568 463.259 264.545 463.757 264.545 464.256C264.545 467.021 265.384 469.333 267.061 471.192C268.738 473.005 270.96 473.912 273.725 473.912C276.581 473.912 278.916 473.051 280.729 471.328C282.588 469.605 283.517 467.452 283.517 464.868C283.517 462.239 282.633 460.108 280.865 458.476L267.809 446.372C265.361 444.105 264.137 441.363 264.137 438.144C264.137 434.925 265.202 432.183 267.333 429.916C269.509 427.604 272.433 426.448 276.105 426.448C277.828 426.448 279.777 426.675 281.953 427.128H284.605V435.492H283.993C283.993 433.361 283.245 431.661 281.749 430.392C280.298 429.123 278.417 428.488 276.105 428.488C273.793 428.488 271.844 429.259 270.257 430.8C268.716 432.341 267.945 434.268 267.945 436.58C267.945 438.892 268.852 440.887 270.665 442.564L284.061 454.94C286.328 457.025 287.461 459.881 287.461 463.508C287.461 467.135 286.305 470.127 283.993 472.484C281.681 474.796 278.598 475.952 274.745 475.952C272.75 475.952 270.62 475.635 268.353 475C266.132 474.411 264.409 473.481 263.185 472.212ZM298.314 474.32C299.493 474.32 300.49 473.912 301.306 473.096C302.168 472.235 302.621 471.215 302.666 470.036V432.296C302.621 431.117 302.168 430.12 301.306 429.304C300.49 428.488 299.493 428.08 298.314 428.08H297.43V427.4H312.322V428.08H311.438C310.26 428.08 309.24 428.488 308.378 429.304C307.562 430.12 307.132 431.117 307.086 432.296V470.036C307.086 471.215 307.517 472.235 308.378 473.096C309.24 473.912 310.26 474.32 311.438 474.32H312.322V475H297.43V474.32H298.314ZM345.531 475.952C338.278 475.907 332.384 473.617 327.851 469.084C323.363 464.551 321.119 458.589 321.119 451.2C321.119 443.811 323.363 437.849 327.851 433.316C332.384 428.737 338.278 426.448 345.531 426.448C351.787 426.448 357.295 427.989 362.055 431.072L363.415 440.66H362.803C361.806 436.761 359.788 433.769 356.751 431.684C353.759 429.553 350.019 428.488 345.531 428.488C339.774 428.488 335.104 430.573 331.523 434.744C327.987 438.915 326.219 444.4 326.219 451.2C326.219 458 327.987 463.485 331.523 467.656C335.104 471.781 339.774 473.867 345.531 473.912C348.478 473.912 351.266 473.391 353.895 472.348C356.57 471.305 358.904 469.855 360.899 467.996V455.96C360.899 454.963 360.582 454.215 359.947 453.716C359.358 453.172 358.519 452.9 357.431 452.9H356.343V452.22H369.671V452.9H368.651C367.518 452.9 366.656 453.172 366.067 453.716C365.478 454.215 365.206 454.963 365.251 455.96V467.18C364.072 468.721 362.667 470.104 361.035 471.328C359.403 472.552 357.204 473.64 354.439 474.592C351.719 475.499 348.75 475.952 345.531 475.952ZM424.51 428.08C423.377 428.08 422.402 428.488 421.586 429.304C420.77 430.075 420.34 431.027 420.294 432.16V467.248C420.294 469.877 420.453 472.371 420.77 474.728L420.906 475.952H420.294L383.234 436.376V470.24C383.28 471.827 383.982 473.005 385.342 473.776C385.977 474.139 386.657 474.32 387.382 474.32H388.674V475H374.666V474.32H375.958C377.092 474.32 378.066 473.935 378.882 473.164C379.698 472.348 380.106 471.351 380.106 470.172V434.88C380.106 432.115 379.948 429.644 379.63 427.468L379.494 426.38H380.174L417.234 465.956V432.228C417.189 431.049 416.758 430.075 415.942 429.304C415.126 428.488 414.152 428.08 413.018 428.08H411.726V427.4H425.734V428.08H424.51ZM435.122 474.32C436.301 474.32 437.298 473.912 438.114 473.096C438.975 472.235 439.429 471.215 439.474 470.036V432.296C439.429 431.117 438.975 430.12 438.114 429.304C437.298 428.488 436.301 428.08 435.122 428.08H434.238V427.4H449.13V428.08H448.246C447.067 428.08 446.047 428.488 445.186 429.304C444.37 430.12 443.939 431.117 443.894 432.296V470.036C443.894 471.215 444.325 472.235 445.186 473.096C446.047 473.912 447.067 474.32 448.246 474.32H449.13V475H434.238V474.32H435.122ZM487.271 428.148V433.86H486.591V432.84C486.591 431.933 486.273 431.163 485.639 430.528C485.004 429.848 484.211 429.508 483.259 429.508H468.91V450.52H480.403C481.309 450.475 482.08 450.135 482.715 449.5C483.349 448.865 483.667 448.095 483.667 447.188V446.168H484.347V456.912H483.667V455.892C483.667 454.985 483.349 454.215 482.715 453.58C482.125 452.945 481.377 452.605 480.471 452.56H468.91V470.036C468.91 471.215 469.341 472.235 470.203 473.096C471.064 473.912 472.084 474.32 473.262 474.32H474.147V475H459.254V474.32H460.138C461.317 474.32 462.314 473.912 463.13 473.096C463.992 472.235 464.445 471.215 464.491 470.036V431.956C464.491 430.868 464.037 429.961 463.13 429.236C462.269 428.465 461.272 428.08 460.138 428.08H459.322L459.254 427.4H479.179C480.584 427.4 482.103 427.264 483.735 426.992C485.412 426.72 486.591 426.448 487.271 426.176V428.148ZM498.968 474.32C500.146 474.32 501.144 473.912 501.96 473.096C502.821 472.235 503.274 471.215 503.32 470.036V432.296C503.274 431.117 502.821 430.12 501.96 429.304C501.144 428.488 500.146 428.08 498.968 428.08H498.084V427.4H512.976V428.08H512.092C510.913 428.08 509.893 428.488 509.032 429.304C508.216 430.12 507.785 431.117 507.74 432.296V470.036C507.74 471.215 508.17 472.235 509.032 473.096C509.893 473.912 510.913 474.32 512.092 474.32H512.976V475H498.084V474.32H498.968ZM546.048 475.952C538.885 475.907 533.037 473.617 528.504 469.084C524.016 464.551 521.772 458.589 521.772 451.2C521.772 443.765 524.016 437.781 528.504 433.248C533.037 428.715 539.021 426.448 546.456 426.448C552.531 426.448 557.903 427.989 562.572 431.072L563.932 440.66H563.32C562.323 436.761 560.305 433.769 557.268 431.684C554.231 429.553 550.627 428.488 546.456 428.488C540.517 428.488 535.757 430.551 532.176 434.676C528.64 438.801 526.872 444.264 526.872 451.064C526.872 457.864 528.617 463.349 532.108 467.52C535.644 471.645 540.291 473.776 546.048 473.912C551.125 473.912 555.364 472.529 558.764 469.764C562.436 466.772 564.657 461.899 565.428 455.144H565.972L565.156 465.82C561.031 472.575 554.661 475.952 546.048 475.952ZM620.084 474.32H620.628V475H605.328V474.32H605.94C606.892 474.32 607.595 474.025 608.048 473.436C608.547 472.801 608.796 472.212 608.796 471.668C608.796 471.124 608.705 470.58 608.524 470.036L604.172 458.476H585.812L581.256 470.104C581.075 470.648 580.984 471.192 580.984 471.736C580.984 472.235 581.211 472.801 581.664 473.436C582.163 474.025 582.888 474.32 583.84 474.32H584.452V475H570.784V474.32H571.396C572.529 474.32 573.64 473.957 574.728 473.232C575.816 472.507 576.7 471.441 577.38 470.036L592.748 433.452C594.425 429.78 595.264 427.445 595.264 426.448H595.876L614.1 470.036C614.735 471.441 615.596 472.507 616.684 473.232C617.772 473.957 618.905 474.32 620.084 474.32ZM586.628 456.436H603.356L595.196 434.608L586.628 456.436ZM648.978 427.4C656.232 427.4 662.102 429.599 666.59 433.996C671.124 438.348 673.39 444.083 673.39 451.2C673.39 458.317 671.124 464.075 666.59 468.472C662.102 472.824 656.232 475 648.978 475H625.926V474.32H626.81C627.989 474.32 628.986 473.912 629.802 473.096C630.664 472.235 631.117 471.215 631.162 470.036V431.956C631.162 430.868 630.709 429.961 629.802 429.236C628.941 428.465 627.944 428.08 626.81 428.08H625.994L625.926 427.4H648.978ZM635.582 429.44V472.96H648.978C652.786 472.96 656.141 472.053 659.042 470.24C661.989 468.427 664.256 465.888 665.842 462.624C667.474 459.315 668.29 455.507 668.29 451.2C668.29 444.672 666.5 439.413 662.918 435.424C659.382 431.435 654.736 429.44 648.978 429.44H635.582ZM690.23 433.316C694.763 428.737 700.656 426.448 707.91 426.448C715.163 426.448 721.056 428.737 725.59 433.316C730.123 437.849 732.39 443.811 732.39 451.2C732.39 458.589 730.123 464.573 725.59 469.152C721.056 473.685 715.163 475.952 707.91 475.952C700.656 475.952 694.763 473.685 690.23 469.152C685.742 464.573 683.498 458.589 683.498 451.2C683.498 443.811 685.742 437.849 690.23 433.316ZM693.97 467.656C697.506 471.827 702.152 473.912 707.91 473.912C713.712 473.912 718.359 471.827 721.85 467.656C725.386 463.485 727.154 458 727.154 451.2C727.154 446.712 726.36 442.745 724.774 439.3C723.187 435.855 720.92 433.203 717.974 431.344C715.072 429.44 711.718 428.488 707.91 428.488C702.152 428.488 697.506 430.573 693.97 434.744C690.479 438.915 688.734 444.4 688.734 451.2C688.734 458 690.479 463.485 693.97 467.656ZM783.926 427.4C791.18 427.4 797.05 429.599 801.538 433.996C806.072 438.348 808.338 444.083 808.338 451.2C808.338 458.317 806.072 464.075 801.538 468.472C797.05 472.824 791.18 475 783.926 475H760.874V474.32H761.758C762.937 474.32 763.934 473.912 764.75 473.096C765.612 472.235 766.065 471.215 766.11 470.036V431.956C766.11 430.868 765.657 429.961 764.75 429.236C763.889 428.465 762.892 428.08 761.758 428.08H760.942L760.874 427.4H783.926ZM770.53 429.44V472.96H783.926C787.734 472.96 791.089 472.053 793.99 470.24C796.937 468.427 799.204 465.888 800.79 462.624C802.422 459.315 803.238 455.507 803.238 451.2C803.238 444.672 801.448 439.413 797.866 435.424C794.33 431.435 789.684 429.44 783.926 429.44H770.53ZM859.983 474.32H860.527V475H845.227V474.32H845.839C846.791 474.32 847.494 474.025 847.947 473.436C848.446 472.801 848.695 472.212 848.695 471.668C848.695 471.124 848.605 470.58 848.423 470.036L844.071 458.476H825.711L821.155 470.104C820.974 470.648 820.883 471.192 820.883 471.736C820.883 472.235 821.11 472.801 821.563 473.436C822.062 474.025 822.787 474.32 823.739 474.32H824.351V475H810.683V474.32H811.295C812.429 474.32 813.539 473.957 814.627 473.232C815.715 472.507 816.599 471.441 817.279 470.036L832.647 433.452C834.325 429.78 835.163 427.445 835.163 426.448H835.775L853.999 470.036C854.634 471.441 855.495 472.507 856.583 473.232C857.671 473.957 858.805 474.32 859.983 474.32ZM826.527 456.436H843.255L835.095 434.608L826.527 456.436ZM865.893 472.212C865.757 471.577 865.689 470.353 865.689 468.54C865.689 466.727 866.029 464.8 866.709 462.76H867.321C867.276 463.259 867.253 463.757 867.253 464.256C867.253 467.021 868.092 469.333 869.769 471.192C871.447 473.005 873.668 473.912 876.433 473.912C879.289 473.912 881.624 473.051 883.437 471.328C885.296 469.605 886.225 467.452 886.225 464.868C886.225 462.239 885.341 460.108 883.573 458.476L870.517 446.372C868.069 444.105 866.845 441.363 866.845 438.144C866.845 434.925 867.911 432.183 870.041 429.916C872.217 427.604 875.141 426.448 878.813 426.448C880.536 426.448 882.485 426.675 884.661 427.128H887.313V435.492H886.701C886.701 433.361 885.953 431.661 884.457 430.392C883.007 429.123 881.125 428.488 878.813 428.488C876.501 428.488 874.552 429.259 872.965 430.8C871.424 432.341 870.653 434.268 870.653 436.58C870.653 438.892 871.56 440.887 873.373 442.564L886.769 454.94C889.036 457.025 890.169 459.881 890.169 463.508C890.169 467.135 889.013 470.127 886.701 472.484C884.389 474.796 881.307 475.952 877.453 475.952C875.459 475.952 873.328 475.635 871.061 475C868.84 474.411 867.117 473.481 865.893 472.212ZM950.935 440.524C950.935 442.519 950.527 444.377 949.711 446.1C948.215 449.319 945.586 451.563 941.823 452.832C940.508 453.285 939.375 453.512 938.423 453.512C935.612 453.512 933.187 452.991 931.147 451.948V451.268C934.456 451.993 937.516 451.631 940.327 450.18C942.82 448.911 944.52 446.825 945.427 443.924C945.699 443.017 945.835 442.156 945.835 441.34C945.835 440.524 945.835 440.025 945.835 439.844C945.744 436.671 944.906 434.155 943.319 432.296C941.732 430.392 939.511 429.44 936.655 429.44H928.835V470.036C928.88 471.215 929.311 472.235 930.127 473.096C930.988 473.912 932.008 474.32 933.187 474.32H934.071V475H919.179V474.32H920.063C921.242 474.32 922.239 473.912 923.055 473.096C923.916 472.235 924.37 471.215 924.415 470.036V432.024C924.279 430.891 923.803 429.961 922.987 429.236C922.171 428.465 921.196 428.08 920.063 428.08H919.247L919.179 427.4H936.927C941.279 427.4 944.702 428.579 947.195 430.936C949.688 433.248 950.935 436.444 950.935 440.524ZM961.017 474.32C962.196 474.32 963.193 473.912 964.009 473.096C964.87 472.235 965.324 471.215 965.369 470.036V431.956C965.233 430.868 964.757 429.961 963.941 429.236C963.125 428.465 962.15 428.08 961.017 428.08H960.201L960.133 427.4H980.057C981.462 427.4 982.981 427.264 984.613 426.992C986.29 426.72 987.469 426.448 988.149 426.176V434.744H987.469V433.52C987.469 432.432 987.084 431.503 986.313 430.732C985.588 429.961 984.704 429.553 983.661 429.508H969.789V450.52H981.281C982.188 450.475 982.958 450.135 983.593 449.5C984.228 448.865 984.545 448.072 984.545 447.12V446.168H985.225V456.912H984.545V455.892C984.545 454.985 984.228 454.215 983.593 453.58C983.004 452.945 982.256 452.605 981.349 452.56H969.789V472.892H979.513C982.868 472.892 985.429 472.144 987.197 470.648C988.965 469.152 990.438 466.931 991.617 463.984H992.297L988.353 475H960.133V474.32H961.017ZM1023.81 427.4C1031.06 427.4 1036.93 429.599 1041.42 433.996C1045.95 438.348 1048.22 444.083 1048.22 451.2C1048.22 458.317 1045.95 464.075 1041.42 468.472C1036.93 472.824 1031.06 475 1023.81 475H1000.75V474.32H1001.64C1002.82 474.32 1003.81 473.912 1004.63 473.096C1005.49 472.235 1005.95 471.215 1005.99 470.036V431.956C1005.99 430.868 1005.54 429.961 1004.63 429.236C1003.77 428.465 1002.77 428.08 1001.64 428.08H1000.82L1000.75 427.4H1023.81ZM1010.41 429.44V472.96H1023.81C1027.61 472.96 1030.97 472.053 1033.87 470.24C1036.82 468.427 1039.08 465.888 1040.67 462.624C1042.3 459.315 1043.12 455.507 1043.12 451.2C1043.12 444.672 1041.33 439.413 1037.75 435.424C1034.21 431.435 1029.56 429.44 1023.81 429.44H1010.41ZM1070.33 429.508H1065.97V470.036C1065.97 471.215 1066.38 472.235 1067.2 473.096C1068.06 473.912 1069.1 474.32 1070.33 474.32H1071.14L1071.21 475H1056.32V474.32H1057.2C1058.38 474.32 1059.38 473.912 1060.19 473.096C1061.06 472.28 1061.51 471.283 1061.55 470.104V432.364C1061.51 431.185 1061.06 430.188 1060.19 429.372C1059.38 428.511 1058.38 428.08 1057.2 428.08H1056.32V427.4H1074.68C1078.8 427.4 1082.05 428.556 1084.4 430.868C1086.76 433.135 1087.94 436.104 1087.94 439.776C1087.94 443.403 1086.81 446.553 1084.54 449.228C1082.32 451.857 1079.6 453.172 1076.38 453.172C1077.06 453.489 1077.85 454.124 1078.76 455.076C1079.71 455.983 1080.55 456.935 1081.27 457.932C1085.17 463.508 1087.71 466.953 1088.89 468.268C1090.07 469.537 1090.91 470.421 1091.41 470.92C1091.91 471.373 1092.45 471.827 1093.04 472.28C1093.63 472.733 1094.22 473.096 1094.81 473.368C1096.12 474.003 1097.53 474.32 1099.02 474.32V475H1095.28C1093.33 475 1091.52 474.66 1089.84 473.98C1088.17 473.255 1086.9 472.529 1086.03 471.804C1085.22 471.033 1084.49 470.308 1083.86 469.628C1083.27 468.903 1081.59 466.545 1078.83 462.556C1076.06 458.567 1074.45 456.3 1074 455.756C1073.55 455.167 1073.07 454.6 1072.57 454.056C1071.12 452.515 1069.67 451.744 1068.22 451.744V451.064C1068.58 451.109 1069.06 451.132 1069.65 451.132C1070.24 451.132 1070.96 451.109 1071.82 451.064C1077.44 450.928 1080.98 448.571 1082.43 443.992C1082.7 443.085 1082.84 442.247 1082.84 441.476C1082.84 440.66 1082.84 440.139 1082.84 439.912C1082.75 436.875 1081.95 434.427 1080.46 432.568C1078.96 430.709 1076.95 429.712 1074.41 429.576C1073.32 429.531 1071.96 429.508 1070.33 429.508ZM1146.93 474.32H1147.47V475H1132.17V474.32H1132.78C1133.74 474.32 1134.44 474.025 1134.89 473.436C1135.39 472.801 1135.64 472.212 1135.64 471.668C1135.64 471.124 1135.55 470.58 1135.37 470.036L1131.02 458.476H1112.66L1108.1 470.104C1107.92 470.648 1107.83 471.192 1107.83 471.736C1107.83 472.235 1108.05 472.801 1108.51 473.436C1109.01 474.025 1109.73 474.32 1110.68 474.32H1111.3V475H1097.63V474.32H1098.24C1099.37 474.32 1100.48 473.957 1101.57 473.232C1102.66 472.507 1103.54 471.441 1104.22 470.036L1119.59 433.452C1121.27 429.78 1122.11 427.445 1122.11 426.448H1122.72L1140.94 470.036C1141.58 471.441 1142.44 472.507 1143.53 473.232C1144.62 473.957 1145.75 474.32 1146.93 474.32ZM1113.47 456.436H1130.2L1122.04 434.608L1113.47 456.436ZM1152.84 472.212C1152.7 471.577 1152.63 470.353 1152.63 468.54C1152.63 466.727 1152.97 464.8 1153.65 462.76H1154.27C1154.22 463.259 1154.2 463.757 1154.2 464.256C1154.2 467.021 1155.04 469.333 1156.71 471.192C1158.39 473.005 1160.61 473.912 1163.38 473.912C1166.23 473.912 1168.57 473.051 1170.38 471.328C1172.24 469.605 1173.17 467.452 1173.17 464.868C1173.17 462.239 1172.29 460.108 1170.52 458.476L1157.46 446.372C1155.01 444.105 1153.79 441.363 1153.79 438.144C1153.79 434.925 1154.85 432.183 1156.99 429.916C1159.16 427.604 1162.09 426.448 1165.76 426.448C1167.48 426.448 1169.43 426.675 1171.61 427.128H1174.26V435.492H1173.65C1173.65 433.361 1172.9 431.661 1171.4 430.392C1169.95 429.123 1168.07 428.488 1165.76 428.488C1163.45 428.488 1161.5 429.259 1159.91 430.8C1158.37 432.341 1157.6 434.268 1157.6 436.58C1157.6 438.892 1158.5 440.887 1160.32 442.564L1173.71 454.94C1175.98 457.025 1177.11 459.881 1177.11 463.508C1177.11 467.135 1175.96 470.127 1173.65 472.484C1171.33 474.796 1168.25 475.952 1164.4 475.952C1162.4 475.952 1160.27 475.635 1158.01 475C1155.78 474.411 1154.06 473.481 1152.84 472.212Z" fill="black"/>
</svg>
