<svg width="148" height="30" viewBox="0 0 148 30" fill="none" xmlns="http://www.w3.org/2000/svg">
<path d="M14.7659 29.56C10.5526 29.5333 7.1126 28.1867 4.44594 25.52C1.80594 22.8533 0.485938 19.3467 0.485938 15C0.485938 10.6267 1.80594 7.10667 4.44594 4.44C7.1126 1.77333 10.6326 0.439998 15.0059 0.439998C18.5793 0.439998 21.7393 1.34667 24.4859 3.16L25.2859 8.8H24.9259C24.3393 6.50667 23.1526 4.74667 21.3659 3.52C19.5793 2.26667 17.4593 1.64 15.0059 1.64C11.5126 1.64 8.71261 2.85333 6.60594 5.28C4.52594 7.70667 3.48594 10.92 3.48594 14.92C3.48594 18.92 4.5126 22.1467 6.56594 24.6C8.64594 27.0267 11.3793 28.28 14.7659 28.36C17.7526 28.36 20.2459 27.5467 22.2459 25.92C24.4059 24.16 25.7126 21.2933 26.1659 17.32H26.4859L26.0059 23.6C23.5793 27.5733 19.8326 29.56 14.7659 29.56ZM41.1966 6.04C43.2499 4.97333 45.5032 4.44 47.9566 4.44C50.4366 4.44 52.7032 4.97333 54.7566 6.04C56.8099 7.08 58.4366 8.56 59.6366 10.48C60.8632 12.4 61.4766 14.5733 61.4766 17C61.4766 19.4267 60.8632 21.6 59.6366 23.52C58.4366 25.44 56.8099 26.9333 54.7566 28C52.7032 29.04 50.5966 29.56 48.4366 29.56C46.2766 29.56 44.3699 29.2533 42.7166 28.64C41.0632 28.0267 39.6232 27.1733 38.3966 26.08C37.1966 24.9867 36.2366 23.6533 35.5166 22.08C34.8232 20.5067 34.4766 18.6667 34.4766 16.56C34.4766 14.4267 35.0766 12.4 36.2766 10.48C37.5032 8.56 39.1432 7.08 41.1966 6.04ZM40.4366 25.2C42.4632 27.3067 44.9699 28.36 47.9566 28.36C50.9432 28.36 53.4499 27.3067 55.4766 25.2C57.5032 23.0667 58.5166 20.3333 58.5166 17C58.5166 13.6667 57.5032 10.9467 55.4766 8.84C53.4499 6.70667 50.9432 5.64 47.9566 5.64C44.9699 5.64 42.4632 6.70667 40.4366 8.84C38.4366 10.9467 37.4366 13.6667 37.4366 17C37.4366 20.3333 38.4366 23.0667 40.4366 25.2ZM76.5472 6.24H74.4272V26.44C74.4539 27.2667 74.8272 27.8933 75.5472 28.32C75.8939 28.5067 76.2805 28.6 76.7072 28.6H77.2272L77.2672 29H69.0672V28.6H69.6272C70.2405 28.6 70.7605 28.4 71.1872 28C71.6405 27.5733 71.8672 27.0667 71.8672 26.48V7.48C71.8672 6.89333 71.6405 6.4 71.1872 6C70.7605 5.6 70.2405 5.4 69.6272 5.4H69.0672V5H79.1072C81.6139 5 83.5872 5.57333 85.0272 6.72C86.4939 7.86667 87.2272 9.37333 87.2272 11.24C87.2272 13.1067 86.6405 14.6667 85.4672 15.92C84.2939 17.1733 82.8005 17.8933 80.9872 18.08C81.8405 18.4533 82.8672 19.4933 84.0672 21.2C84.0405 21.2 84.4939 21.7867 85.4272 22.96C86.3872 24.1333 87.1472 25.0533 87.7072 25.72C88.2939 26.36 88.7739 26.8533 89.1472 27.2C90.1339 28.1333 91.2672 28.6 92.5472 28.6V29H91.3072C89.2005 29 87.5472 28.5867 86.3472 27.76C85.4405 27.1467 84.6139 26.3867 83.8672 25.48C83.7072 25.2667 83.0272 24.3333 81.8272 22.68C80.6539 21 80.0272 20.1067 79.9472 20C78.5072 18.2133 77.1605 17.32 75.9072 17.32V16.92C79.0272 16.92 80.9072 16.76 81.5472 16.44C82.4272 15.9867 83.0272 15.5067 83.3472 15C84.0139 13.9333 84.3472 12.76 84.3472 11.48C84.3472 9.85333 83.8672 8.6 82.9072 7.72C81.9472 6.84 80.6539 6.36 79.0272 6.28C78.3072 6.25333 77.4805 6.24 76.5472 6.24ZM122.345 28.6H122.665V29H114.465V28.6H114.785C115.292 28.6 115.679 28.4267 115.945 28.08C116.212 27.7333 116.345 27.4133 116.345 27.12C116.345 26.8 116.292 26.4933 116.185 26.2L113.985 20.88H103.865L101.665 26.08C101.532 26.4267 101.465 26.76 101.465 27.08C101.465 27.3733 101.599 27.7067 101.865 28.08C102.132 28.4267 102.532 28.6 103.065 28.6H103.385V29H95.7453V28.6H96.0653C96.6253 28.6 97.1853 28.4133 97.7453 28.04C98.332 27.64 98.812 27.0533 99.1853 26.28C105.025 13.8 108.065 7.26667 108.305 6.68C108.759 5.56 108.999 4.81333 109.025 4.44H109.385L119.265 26.28C120.039 27.8267 121.065 28.6 122.345 28.6ZM104.385 19.68H113.505L109.025 8.72L104.385 19.68ZM129.229 28.6C129.869 28.6 130.402 28.4 130.829 28C131.282 27.5733 131.522 27.0667 131.549 26.48V7.56C131.522 6.97333 131.269 6.46667 130.789 6.04C130.335 5.61333 129.789 5.4 129.149 5.4H128.669V5H136.949V5.4H136.469C135.829 5.4 135.269 5.61333 134.789 6.04C134.335 6.46667 134.109 6.97333 134.109 7.56V27.76H140.349C141.575 27.76 142.615 27.5467 143.469 27.12C144.322 26.6933 144.962 26.1867 145.389 25.6C145.842 25.0133 146.282 24.24 146.709 23.28H147.109L144.909 29H128.669V28.6H129.229Z" fill="#C9C99C"/>
</svg>
