<svg width="110" height="97" viewBox="0 0 110 97" fill="none" xmlns="http://www.w3.org/2000/svg">
<g clip-path="url(#clip0)">
<path d="M82.4954 0.02L68.231 0C52.2055 0 41.8491 9.285 41.8491 23.656V34.563H27.5069C26.2675 34.563 25.2639 35.441 25.2639 36.524V52.327C25.2639 53.41 26.2687 54.287 27.5069 54.287H41.8491V94.163C41.8491 95.246 42.8527 96.123 44.092 96.123H62.8045C64.0438 96.123 65.0474 95.245 65.0474 94.163V54.287H81.8168C83.0561 54.287 84.0597 53.41 84.0597 52.327L84.0666 36.524C84.0666 36.004 83.8297 35.506 83.4097 35.138C82.9898 34.77 82.4176 34.563 81.8225 34.563H65.0474V25.317C65.0474 20.873 66.2593 18.617 72.884 18.617L82.4931 18.614C83.7313 18.614 84.7349 17.736 84.7349 16.654V1.98C84.7349 0.899 83.7325 0.022 82.4954 0.02Z" fill="#C9C993"/>
</g>
<defs>
<clipPath id="clip0">
<rect width="110" height="96.123" fill="white"/>
</clipPath>
</defs>
</svg>
