<svg width="387" height="219" viewBox="0 0 387 219" fill="none" xmlns="http://www.w3.org/2000/svg">
<rect x="2" y="23" width="383" height="194" rx="28" stroke="#C9C993" stroke-width="4"/>
<rect x="118" y="21" width="150" height="4" fill="white"/>
<path d="M174.816 30.1406H164.543L162.59 36H156.359L166.945 7.5625H172.375L183.02 36H176.789L174.816 30.1406ZM166.125 25.3945H173.234L169.66 14.75L166.125 25.3945ZM195.535 25.9805V36H189.676V7.5625H200.77C202.905 7.5625 204.78 7.95312 206.395 8.73438C208.022 9.51562 209.272 10.6289 210.145 12.0742C211.017 13.5065 211.453 15.1406 211.453 16.9766C211.453 19.763 210.496 21.9635 208.582 23.5781C206.681 25.1797 204.044 25.9805 200.672 25.9805H195.535ZM195.535 21.2344H200.77C202.319 21.2344 203.497 20.8698 204.305 20.1406C205.125 19.4115 205.535 18.3698 205.535 17.0156C205.535 15.6224 205.125 14.4961 204.305 13.6367C203.484 12.7773 202.352 12.3346 200.906 12.3086H195.535V21.2344ZM225.355 25.9805V36H219.496V7.5625H230.59C232.725 7.5625 234.6 7.95312 236.215 8.73438C237.842 9.51562 239.092 10.6289 239.965 12.0742C240.837 13.5065 241.273 15.1406 241.273 16.9766C241.273 19.763 240.316 21.9635 238.402 23.5781C236.501 25.1797 233.865 25.9805 230.492 25.9805H225.355ZM225.355 21.2344H230.59C232.139 21.2344 233.318 20.8698 234.125 20.1406C234.945 19.4115 235.355 18.3698 235.355 17.0156C235.355 15.6224 234.945 14.4961 234.125 13.6367C233.305 12.7773 232.172 12.3346 230.727 12.3086H225.355V21.2344Z" fill="#C9C993"/>
</svg>
