<svg width="100" height="100" viewBox="0 0 100 100" fill="none" xmlns="http://www.w3.org/2000/svg">
<path d="M90 0H10C4.5 0 0 4.5 0 10V90C0 95.5 4.5 100 10 100H90C95.5 100 100 95.5 100 90V10C100 4.5 95.5 0 90 0ZM50 30C61 30 70 39 70 50C70 61 61 70 50 70C39 70 30 61 30 50C30 39 39 30 50 30ZM12.5 90C11 90 10 89 10 87.5V45H20.5C20 46.5 20 48.5 20 50C20 66.5 33.5 80 50 80C66.5 80 80 66.5 80 50C80 48.5 80 46.5 79.5 45H90V87.5C90 89 89 90 87.5 90H12.5ZM90 22.5C90 24 89 25 87.5 25H77.5C76 25 75 24 75 22.5V12.5C75 11 76 10 77.5 10H87.5C89 10 90 11 90 12.5V22.5Z" fill="#C9C993"/>
</svg>
