<svg width="176" height="198" viewBox="0 0 176 198" fill="none" xmlns="http://www.w3.org/2000/svg">
<circle cx="88" cy="55" r="53.5" stroke="black" stroke-width="3"/>
<path d="M72.0231 64H68.8327V48.5884L64.1262 50.1968V47.4941L71.6145 44.7388H72.0231V64ZM93.9053 55.9185C93.9053 58.6782 93.3867 60.7612 92.3496 62.1675C91.3213 63.5649 89.7524 64.2637 87.6431 64.2637C85.5688 64.2637 84.0044 63.5825 82.9497 62.2202C81.9038 60.8491 81.3677 58.8232 81.3413 56.1426V52.8203C81.3413 50.0605 81.8555 47.9907 82.8838 46.6108C83.9209 45.231 85.4985 44.541 87.6167 44.541C89.7173 44.541 91.2817 45.2134 92.3101 46.5581C93.3472 47.9028 93.8789 49.9155 93.9053 52.5962V55.9185ZM90.7017 52.3325C90.7017 50.5308 90.4556 49.2124 89.9634 48.3774C89.4712 47.5337 88.689 47.1118 87.6167 47.1118C86.5708 47.1118 85.8018 47.5117 85.3096 48.3115C84.8174 49.1025 84.5581 50.3418 84.5317 52.0293V56.3799C84.5317 58.1729 84.7822 59.5088 85.2832 60.3877C85.7842 61.2666 86.5708 61.7061 87.6431 61.7061C88.6714 61.7061 89.4316 61.3018 89.9238 60.4932C90.416 59.6758 90.6753 58.4014 90.7017 56.6699V52.3325ZM106.559 51.7393L110.593 44.8047H114.443L108.642 54.3232L114.575 64H110.685L106.559 56.96L102.419 64H98.5433L104.489 54.3232L98.6751 44.8047H102.525L106.559 51.7393Z" fill="black"/>
<path d="M40.7949 151.99V157H37.8652V142.781H43.4121C44.4798 142.781 45.4173 142.977 46.2246 143.367C47.0384 143.758 47.6634 144.314 48.0996 145.037C48.5358 145.753 48.7539 146.57 48.7539 147.488C48.7539 148.882 48.2754 149.982 47.3184 150.789C46.3678 151.59 45.0495 151.99 43.3633 151.99H40.7949ZM40.7949 149.617H43.4121C44.1868 149.617 44.776 149.435 45.1797 149.07C45.5898 148.706 45.7949 148.185 45.7949 147.508C45.7949 146.811 45.5898 146.248 45.1797 145.818C44.7695 145.389 44.2031 145.167 43.4805 145.154H40.7949V149.617ZM59.0645 154.07H53.9277L52.9512 157H49.8359L55.1289 142.781H57.8438L63.166 157H60.0508L59.0645 154.07ZM54.7188 151.697H58.2734L56.4863 146.375L54.7188 151.697ZM71.7578 151.795H69.4238V157H66.4941V142.781H71.7773C73.457 142.781 74.7526 143.156 75.6641 143.904C76.5755 144.653 77.0312 145.711 77.0312 147.078C77.0312 148.048 76.8197 148.859 76.3965 149.51C75.9798 150.154 75.3451 150.669 74.4922 151.053L77.5684 156.863V157H74.4238L71.7578 151.795ZM69.4238 149.422H71.7871C72.5228 149.422 73.0924 149.236 73.4961 148.865C73.8997 148.488 74.1016 147.97 74.1016 147.312C74.1016 146.642 73.9095 146.115 73.5254 145.73C73.1478 145.346 72.5651 145.154 71.7773 145.154H69.4238V149.422ZM92.4297 152.264C92.319 153.794 91.7526 154.998 90.7305 155.877C89.7148 156.756 88.3737 157.195 86.707 157.195C84.8841 157.195 83.4486 156.583 82.4004 155.359C81.3587 154.129 80.8379 152.443 80.8379 150.301V149.432C80.8379 148.064 81.0788 146.86 81.5605 145.818C82.0423 144.777 82.7292 143.979 83.6211 143.426C84.5195 142.866 85.5612 142.586 86.7461 142.586C88.3867 142.586 89.7083 143.025 90.7109 143.904C91.7135 144.783 92.293 146.017 92.4492 147.605H89.5195C89.4479 146.688 89.1908 146.023 88.748 145.613C88.3118 145.197 87.6445 144.988 86.7461 144.988C85.7695 144.988 85.0371 145.34 84.5488 146.043C84.0671 146.74 83.8197 147.824 83.8066 149.295V150.369C83.8066 151.906 84.0378 153.029 84.5 153.738C84.9688 154.448 85.7044 154.803 86.707 154.803C87.612 154.803 88.2858 154.598 88.7285 154.188C89.1777 153.771 89.4349 153.13 89.5 152.264H92.4297ZM104.908 150.838H99.2832V154.646H105.885V157H96.3535V142.781H105.865V145.154H99.2832V148.543H104.908V150.838ZM112.533 154.646H118.754V157H109.604V142.781H112.533V154.646ZM130.998 150.838H125.373V154.646H131.975V157H122.443V142.781H131.955V145.154H125.373V148.543H130.998V150.838ZM34.0039 176.27C34.0039 175.716 33.8086 175.293 33.418 175C33.0273 174.701 32.3242 174.388 31.3086 174.062C30.293 173.73 29.4889 173.405 28.8965 173.086C27.2819 172.214 26.4746 171.038 26.4746 169.561C26.4746 168.792 26.6895 168.109 27.1191 167.51C27.5553 166.904 28.1771 166.432 28.9844 166.094C29.7982 165.755 30.7096 165.586 31.7188 165.586C32.7344 165.586 33.6393 165.771 34.4336 166.143C35.2279 166.507 35.8431 167.025 36.2793 167.695C36.722 168.366 36.9434 169.128 36.9434 169.98H34.0137C34.0137 169.329 33.8086 168.825 33.3984 168.467C32.9883 168.102 32.4121 167.92 31.6699 167.92C30.9538 167.92 30.3971 168.073 30 168.379C29.6029 168.678 29.4043 169.076 29.4043 169.57C29.4043 170.033 29.6354 170.42 30.0977 170.732C30.5664 171.045 31.2533 171.338 32.1582 171.611C33.8249 172.113 35.0391 172.734 35.8008 173.477C36.5625 174.219 36.9434 175.143 36.9434 176.25C36.9434 177.48 36.4779 178.447 35.5469 179.15C34.6159 179.847 33.3626 180.195 31.7871 180.195C30.6934 180.195 29.6973 179.997 28.7988 179.6C27.9004 179.196 27.2135 178.646 26.7383 177.949C26.2695 177.253 26.0352 176.445 26.0352 175.527H28.9746C28.9746 177.096 29.9121 177.881 31.7871 177.881C32.4837 177.881 33.0273 177.741 33.418 177.461C33.8086 177.174 34.0039 176.777 34.0039 176.27ZM49.4902 173.838H43.8652V177.646H50.4668V180H40.9355V165.781H50.4473V168.154H43.8652V171.543H49.4902V173.838ZM58.0137 165.781L61.666 176.094L65.2988 165.781H69.1465V180H66.207V176.113L66.5 169.404L62.6621 180H60.6504L56.8223 169.414L57.1152 176.113V180H54.1855V165.781H58.0137ZM86.418 165.781H89.3477V175.625C89.3477 176.53 89.1458 177.331 88.7422 178.027C88.3451 178.717 87.7819 179.251 87.0527 179.629C86.3236 180.007 85.5 180.195 84.582 180.195C83.0781 180.195 81.9062 179.814 81.0664 179.053C80.2266 178.285 79.8066 177.201 79.8066 175.801H82.7559C82.7559 176.497 82.9023 177.012 83.1953 177.344C83.4883 177.676 83.9505 177.842 84.582 177.842C85.1419 177.842 85.5879 177.65 85.9199 177.266C86.252 176.882 86.418 176.335 86.418 175.625V165.781ZM104.619 165.781V175.146C104.619 176.702 104.131 177.933 103.154 178.838C102.184 179.743 100.856 180.195 99.1699 180.195C97.5098 180.195 96.1914 179.756 95.2148 178.877C94.2383 177.998 93.7402 176.79 93.7207 175.254V165.781H96.6504V175.166C96.6504 176.097 96.8717 176.777 97.3145 177.207C97.7637 177.63 98.3822 177.842 99.1699 177.842C100.817 177.842 101.654 176.976 101.68 175.244V165.781H104.619ZM114.285 174.795H111.951V180H109.021V165.781H114.305C115.984 165.781 117.28 166.156 118.191 166.904C119.103 167.653 119.559 168.711 119.559 170.078C119.559 171.048 119.347 171.859 118.924 172.51C118.507 173.154 117.872 173.669 117.02 174.053L120.096 179.863V180H116.951L114.285 174.795ZM111.951 172.422H114.314C115.05 172.422 115.62 172.236 116.023 171.865C116.427 171.488 116.629 170.97 116.629 170.312C116.629 169.642 116.437 169.115 116.053 168.73C115.675 168.346 115.092 168.154 114.305 168.154H111.951V172.422ZM135.475 173.213C135.475 174.613 135.227 175.84 134.732 176.895C134.238 177.949 133.528 178.763 132.604 179.336C131.686 179.909 130.631 180.195 129.439 180.195C128.261 180.195 127.21 179.912 126.285 179.346C125.361 178.779 124.645 177.972 124.137 176.924C123.629 175.869 123.372 174.658 123.365 173.291V172.588C123.365 171.188 123.616 169.958 124.117 168.896C124.625 167.829 125.338 167.012 126.256 166.445C127.18 165.872 128.235 165.586 129.42 165.586C130.605 165.586 131.656 165.872 132.574 166.445C133.499 167.012 134.212 167.829 134.713 168.896C135.221 169.958 135.475 171.185 135.475 172.578V173.213ZM132.506 172.568C132.506 171.077 132.239 169.945 131.705 169.17C131.171 168.395 130.41 168.008 129.42 168.008C128.437 168.008 127.678 168.392 127.145 169.16C126.611 169.922 126.34 171.042 126.334 172.52V173.213C126.334 174.665 126.601 175.791 127.135 176.592C127.669 177.393 128.437 177.793 129.439 177.793C130.423 177.793 131.178 177.409 131.705 176.641C132.232 175.866 132.499 174.74 132.506 173.262V172.568ZM146.977 176.27C146.977 175.716 146.781 175.293 146.391 175C146 174.701 145.297 174.388 144.281 174.062C143.266 173.73 142.462 173.405 141.869 173.086C140.255 172.214 139.447 171.038 139.447 169.561C139.447 168.792 139.662 168.109 140.092 167.51C140.528 166.904 141.15 166.432 141.957 166.094C142.771 165.755 143.682 165.586 144.691 165.586C145.707 165.586 146.612 165.771 147.406 166.143C148.201 166.507 148.816 167.025 149.252 167.695C149.695 168.366 149.916 169.128 149.916 169.98H146.986C146.986 169.329 146.781 168.825 146.371 168.467C145.961 168.102 145.385 167.92 144.643 167.92C143.926 167.92 143.37 168.073 142.973 168.379C142.576 168.678 142.377 169.076 142.377 169.57C142.377 170.033 142.608 170.42 143.07 170.732C143.539 171.045 144.226 171.338 145.131 171.611C146.798 172.113 148.012 172.734 148.773 173.477C149.535 174.219 149.916 175.143 149.916 176.25C149.916 177.48 149.451 178.447 148.52 179.15C147.589 179.847 146.335 180.195 144.76 180.195C143.666 180.195 142.67 179.997 141.771 179.6C140.873 179.196 140.186 178.646 139.711 177.949C139.242 177.253 139.008 176.445 139.008 175.527H141.947C141.947 177.096 142.885 177.881 144.76 177.881C145.456 177.881 146 177.741 146.391 177.461C146.781 177.174 146.977 176.777 146.977 176.27Z" fill="black"/>
</svg>
