<svg width="100" height="100" viewBox="0 0 100 100" fill="none" xmlns="http://www.w3.org/2000/svg">
<g clip-path="url(#clip0)">
<path d="M89.9711 42.497C89.9555 42.4891 89.9398 42.4794 89.9242 42.4696L19.1355 1.27868C16.3867 -0.377253 13.0787 -0.428085 10.2791 1.14769C7.47358 2.72738 5.79614 5.59349 5.79614 8.81543V91.1859C5.79614 94.4078 7.47358 97.274 10.2791 98.8536C13.0142 100.392 16.3222 100.416 19.1335 98.7227C19.1335 98.7227 89.9555 57.5491 89.9711 57.5394C92.6202 55.9304 94.2038 53.119 94.2038 50.0183C94.2038 46.9175 92.6202 44.106 89.9711 42.497ZM66.1155 35.4023L55.7166 45.8481L16.7308 6.66682L66.1155 35.4023ZM11.6613 90.0987V9.8868L51.5777 50.0046L11.6613 90.0987ZM16.6975 93.3541L55.7146 54.163L66.1194 64.6206L16.6975 93.3541ZM86.9486 52.5127L71.3609 61.5744L59.8535 50.0063L71.357 38.4519L86.9466 47.5234C88.2018 48.2976 88.3386 49.5254 88.3386 50.0181C88.3386 50.5107 88.2018 51.7385 86.9486 52.5127Z" fill="#C9C993"/>
</g>
<defs>
<clipPath id="clip0">
<rect width="100" height="100" fill="white"/>
</clipPath>
</defs>
</svg>
