<svg width="105" height="110" viewBox="0 0 105 110" fill="none" xmlns="http://www.w3.org/2000/svg">
<path d="M69.7915 16.459C67.7863 18.7685 65.3012 20.3801 62.9971 21.1686C60.6774 21.9625 58.7934 21.8597 57.5598 21.163C56.3261 20.4664 55.5619 19.0738 55.6935 17.0445C55.8243 15.0287 56.8522 12.5942 58.8575 10.2847C60.8627 7.97527 63.3478 6.36364 65.6519 5.57511C67.9715 4.78126 69.8555 4.88409 71.0892 5.58073C72.3229 6.27737 73.0871 7.66992 72.9554 9.69931C72.8247 11.7151 71.7967 14.1495 69.7915 16.459Z" stroke="black" stroke-width="4"/>
<path d="M50.4315 10.2848C52.4367 12.5942 53.4647 15.0287 53.5954 17.0445C53.7271 19.0739 52.9629 20.4664 51.7292 21.1631C50.4955 21.8597 48.6115 21.9625 46.2919 21.1687C43.9878 20.3801 41.5027 18.7685 39.4975 16.459C37.4923 14.1496 36.4643 11.7151 36.3335 9.69933C36.2019 7.66994 36.9661 6.27739 38.1998 5.58075C39.4334 4.88411 41.3174 4.78128 43.6371 5.57514C45.9412 6.36366 48.4263 7.9753 50.4315 10.2848Z" stroke="black" stroke-width="4"/>
<rect x="5.53998" y="40.5323" width="93.8" height="67.9677" rx="3.5" stroke="black" stroke-width="3"/>
<mask id="path-4-inside-1" fill="white">
<path d="M0 24C0 22.3431 1.34315 21 3 21H102C103.657 21 105 22.3431 105 24V35C105 38.3137 102.314 41 99 41H6C2.68629 41 0 38.3137 0 35V24Z"/>
</mask>
<path d="M0 24C0 22.3431 1.34315 21 3 21H102C103.657 21 105 22.3431 105 24V35C105 38.3137 102.314 41 99 41H6C2.68629 41 0 38.3137 0 35V24Z" stroke="black" stroke-width="7" mask="url(#path-4-inside-1)"/>
<line x1="54.08" y1="108.581" x2="54.08" y2="23.4193" stroke="black" stroke-width="6"/>
</svg>
