<svg width="74" height="22" viewBox="0 0 74 22" fill="none" xmlns="http://www.w3.org/2000/svg">
<path d="M6.97902 0.929999H5.05902V18.81C5.05902 19.33 5.23902 19.78 5.59902 20.16C5.97902 20.52 6.43902 20.7 6.97902 20.7H7.33902L7.36902 21H0.799024V20.7H1.18902C1.70902 20.7 2.14902 20.52 2.50902 20.16C2.88902 19.8 3.08902 19.36 3.10902 18.84V2.19C3.08902 1.67 2.88902 1.23 2.50902 0.87C2.14902 0.489999 1.70902 0.299998 1.18902 0.299998H0.799024V-1.43051e-06H8.89902C10.719 -1.43051e-06 12.149 0.509999 13.189 1.53C14.229 2.53 14.749 3.84 14.749 5.46C14.749 7.06 14.249 8.45 13.249 9.63C12.269 10.79 11.069 11.37 9.64902 11.37C9.94902 11.51 10.299 11.79 10.699 12.21C11.119 12.61 11.489 13.03 11.809 13.47C13.529 15.93 14.649 17.45 15.169 18.03C15.689 18.59 16.059 18.98 16.279 19.2C16.499 19.4 16.739 19.6 16.999 19.8C17.259 20 17.519 20.16 17.779 20.28C18.359 20.56 18.979 20.7 19.639 20.7V21H17.989C17.129 21 16.329 20.85 15.589 20.55C14.849 20.23 14.289 19.91 13.909 19.59C13.549 19.25 13.229 18.93 12.949 18.63C12.689 18.31 11.949 17.27 10.729 15.51C9.50902 13.75 8.79902 12.75 8.59902 12.51C8.39902 12.25 8.18902 12 7.96902 11.76C7.32902 11.08 6.68902 10.74 6.04902 10.74V10.44C6.20902 10.46 6.41902 10.47 6.67902 10.47C6.93902 10.47 7.25902 10.46 7.63902 10.44C10.119 10.38 11.679 9.34 12.319 7.32C12.439 6.92 12.499 6.55 12.499 6.21C12.499 5.85 12.499 5.62 12.499 5.52C12.459 4.18 12.109 3.1 11.449 2.28C10.789 1.46 9.89902 1.02 8.77902 0.959999C8.29902 0.939999 7.69902 0.929999 6.97902 0.929999ZM40.7576 3.3H40.3076C39.7676 3.3 39.3576 3.51 39.0776 3.93C38.9576 4.11 38.8876 4.32 38.8676 4.56V14.67C38.8676 16.75 38.1976 18.4 36.8576 19.62C35.5376 20.82 33.7176 21.42 31.3976 21.42C29.0776 21.42 27.2476 20.82 25.9076 19.62C24.5676 18.42 23.8976 16.78 23.8976 14.7V4.59C23.8976 4.23 23.7576 3.93 23.4776 3.69C23.1976 3.43 22.8576 3.3 22.4576 3.3H22.0076V3H27.7076V3.3H27.2576C26.8576 3.3 26.5176 3.43 26.2376 3.69C25.9576 3.93 25.8176 4.23 25.8176 4.59V14.34C25.8176 16.28 26.3076 17.81 27.2876 18.93C28.2876 20.05 29.6876 20.61 31.4876 20.61C33.3076 20.61 34.7576 20.08 35.8376 19.02C36.9376 17.96 37.4876 16.51 37.4876 14.67V4.59C37.4676 4.21 37.3176 3.9 37.0376 3.66C36.7776 3.42 36.4476 3.3 36.0476 3.3H35.5976V3H40.7576V3.3ZM58.3735 5.49C58.6735 6.07 58.8235 6.77 58.8235 7.59C58.8235 8.41 58.4935 9.17 57.8335 9.87C57.1735 10.55 56.4035 11 55.5235 11.22C56.9835 11.38 58.1835 11.91 59.1235 12.81C60.0835 13.71 60.5635 14.7 60.5635 15.78C60.5635 16.84 60.3535 17.71 59.9335 18.39C59.5335 19.07 58.9935 19.59 58.3135 19.95C57.0135 20.65 55.5435 21 53.9035 21H46.4635V20.7H46.8235C47.3235 20.7 47.7435 20.55 48.0835 20.25C48.4235 19.93 48.6035 19.54 48.6235 19.08V4.92C48.6035 4.26 48.3035 3.79 47.7235 3.51C47.4635 3.37 47.1635 3.3 46.8235 3.3H46.4635V3H52.5835C55.5635 3 57.4935 3.83 58.3735 5.49ZM58.4335 15.96C58.4335 12.98 56.1035 11.49 51.4435 11.49V11.19C54.9635 11.19 56.7235 9.96 56.7235 7.5C56.7235 5.1 55.3335 3.9 52.5535 3.9H50.5135V20.1H53.8735C55.2335 20.1 56.3335 19.76 57.1735 19.08C58.0135 18.38 58.4335 17.34 58.4335 15.96ZM66.9929 20.7C67.5329 20.7 68.0029 20.54 68.4029 20.22C68.8029 19.9 69.0029 19.52 69.0029 19.08V4.92C69.0029 4.48 68.8029 4.1 68.4029 3.78C68.0029 3.46 67.5229 3.3 66.9629 3.3H66.5729V3H73.3529V3.3H72.9629C72.4229 3.3 71.9529 3.45 71.5529 3.75C71.1729 4.05 70.9629 4.42 70.9229 4.86V19.11C70.9429 19.55 71.1529 19.93 71.5529 20.25C71.9529 20.55 72.4229 20.7 72.9629 20.7H73.3529L73.3829 21H66.5729V20.7H66.9929Z" fill="#C9C99C"/>
</svg>
