<svg width="150" height="30" viewBox="0 0 150 30" fill="none" xmlns="http://www.w3.org/2000/svg">
<path d="M0.893125 27.36C0.813125 26.9867 0.773125 26.2667 0.773125 25.2C0.773125 24.1333 0.973125 23 1.37313 21.8H1.73313C1.70646 22.0933 1.69313 22.3867 1.69313 22.68C1.69313 24.3067 2.18646 25.6667 3.17313 26.76C4.15979 27.8267 5.46646 28.36 7.09313 28.36C8.77313 28.36 10.1465 27.8533 11.2131 26.84C12.3065 25.8267 12.8531 24.56 12.8531 23.04C12.8531 21.4933 12.3331 20.24 11.2931 19.28L3.61313 12.16C2.17313 10.8267 1.45313 9.21333 1.45313 7.32C1.45313 5.42666 2.07979 3.81333 3.33313 2.48C4.61313 1.12 6.33313 0.439998 8.49313 0.439998C9.50646 0.439998 10.6531 0.573331 11.9331 0.839998H13.4931V5.76H13.1331C13.1331 4.50667 12.6931 3.50667 11.8131 2.76C10.9598 2.01333 9.85313 1.64 8.49313 1.64C7.13313 1.64 5.98646 2.09333 5.05313 3C4.14646 3.90666 3.69313 5.04 3.69313 6.4C3.69313 7.76 4.22646 8.93333 5.29313 9.92L13.1731 17.2C14.5065 18.4267 15.1731 20.1067 15.1731 22.24C15.1731 24.3733 14.4931 26.1333 13.1331 27.52C11.7731 28.88 9.95979 29.56 7.69313 29.56C6.51979 29.56 5.26646 29.3733 3.93313 29C2.62646 28.6533 1.61313 28.1067 0.893125 27.36ZM47.4469 28.6H47.7669V29H39.5669V28.6H39.8869C40.3935 28.6 40.7802 28.4267 41.0469 28.08C41.3135 27.7333 41.4469 27.4133 41.4469 27.12C41.4469 26.8 41.3935 26.4933 41.2869 26.2L39.0869 20.88H28.9669L26.7669 26.08C26.6335 26.4267 26.5669 26.76 26.5669 27.08C26.5669 27.3733 26.7002 27.7067 26.9669 28.08C27.2335 28.4267 27.6335 28.6 28.1669 28.6H28.4869V29H20.8469V28.6H21.1669C21.7269 28.6 22.2869 28.4133 22.8469 28.04C23.4335 27.64 23.9135 27.0533 24.2869 26.28C30.1269 13.8 33.1669 7.26667 33.4069 6.68C33.8602 5.56 34.1002 4.81333 34.1269 4.44H34.4869L44.3669 26.28C45.1402 27.8267 46.1669 28.6 47.4469 28.6ZM29.4869 19.68H38.6069L34.1269 8.72L29.4869 19.68ZM69.6503 8.28C69.6503 7.37333 69.2636 6.74667 68.4903 6.4C68.2236 6.29333 67.9436 6.24 67.6503 6.24H59.2103V16.4H66.1703C66.7036 16.4 67.1036 16.24 67.3703 15.92C67.637 15.6 67.7703 15.2 67.7703 14.72V14.2H68.2503V19.8H67.7703V19.28C67.7703 18.64 67.557 18.1733 67.1303 17.88C66.8903 17.72 66.597 17.6267 66.2503 17.6H59.2103V26.44C59.237 27.16 59.557 27.7467 60.1703 28.2C60.5703 28.4667 61.037 28.6 61.5703 28.6H62.1303V29H53.7703V28.6H54.3303C54.9703 28.6 55.517 28.4 55.9703 28C56.4236 27.5733 56.6636 27.0667 56.6903 26.48V7.48C56.6636 6.65333 56.277 6.05333 55.5303 5.68C55.157 5.49333 54.757 5.4 54.3303 5.4H53.7703V5H59.2103H65.5703C66.3436 5 67.197 4.93333 68.1303 4.8C69.0636 4.66667 69.717 4.52 70.0903 4.36V8.92L69.6503 8.88V8.28ZM79.2678 28.6C79.9878 28.6 80.6145 28.3867 81.1478 27.96C81.6811 27.5333 81.9478 27.0267 81.9478 26.44V7.56C81.9478 6.97333 81.6811 6.46667 81.1478 6.04C80.6145 5.61333 79.9745 5.4 79.2278 5.4H78.7078V5H87.7478V5.4H87.2278C86.5078 5.4 85.8811 5.6 85.3478 6C84.8411 6.4 84.5611 6.89333 84.5078 7.48V26.48C84.5345 27.0667 84.8145 27.5733 85.3478 28C85.8811 28.4 86.5078 28.6 87.2278 28.6H87.7478L87.7878 29H78.7078V28.6H79.2678ZM103.625 6.24H101.505V26.44C101.532 27.2667 101.905 27.8933 102.625 28.32C102.972 28.5067 103.359 28.6 103.785 28.6H104.305L104.345 29H96.1453V28.6H96.7053C97.3186 28.6 97.8386 28.4 98.2653 28C98.7186 27.5733 98.9453 27.0667 98.9453 26.48V7.48C98.9453 6.89333 98.7186 6.4 98.2653 6C97.8386 5.6 97.3186 5.4 96.7053 5.4H96.1453V5H106.185C108.692 5 110.665 5.57333 112.105 6.72C113.572 7.86667 114.305 9.37333 114.305 11.24C114.305 13.1067 113.719 14.6667 112.545 15.92C111.372 17.1733 109.879 17.8933 108.065 18.08C108.919 18.4533 109.945 19.4933 111.145 21.2C111.119 21.2 111.572 21.7867 112.505 22.96C113.465 24.1333 114.225 25.0533 114.785 25.72C115.372 26.36 115.852 26.8533 116.225 27.2C117.212 28.1333 118.345 28.6 119.625 28.6V29H118.385C116.279 29 114.625 28.5867 113.425 27.76C112.519 27.1467 111.692 26.3867 110.945 25.48C110.785 25.2667 110.105 24.3333 108.905 22.68C107.732 21 107.105 20.1067 107.025 20C105.585 18.2133 104.239 17.32 102.985 17.32V16.92C106.105 16.92 107.985 16.76 108.625 16.44C109.505 15.9867 110.105 15.5067 110.425 15C111.092 13.9333 111.425 12.76 111.425 11.48C111.425 9.85333 110.945 8.6 109.985 7.72C109.025 6.84 107.732 6.36 106.105 6.28C105.385 6.25333 104.559 6.24 103.625 6.24ZM149.423 28.6H149.743V29H141.543V28.6H141.863C142.37 28.6 142.757 28.4267 143.023 28.08C143.29 27.7333 143.423 27.4133 143.423 27.12C143.423 26.8 143.37 26.4933 143.263 26.2L141.063 20.88H130.943L128.743 26.08C128.61 26.4267 128.543 26.76 128.543 27.08C128.543 27.3733 128.677 27.7067 128.943 28.08C129.21 28.4267 129.61 28.6 130.143 28.6H130.463V29H122.823V28.6H123.143C123.703 28.6 124.263 28.4133 124.823 28.04C125.41 27.64 125.89 27.0533 126.263 26.28C132.103 13.8 135.143 7.26667 135.383 6.68C135.837 5.56 136.077 4.81333 136.103 4.44H136.463L146.343 26.28C147.117 27.8267 148.143 28.6 149.423 28.6ZM131.463 19.68H140.583L136.103 8.72L131.463 19.68Z" fill="#C9C99C"/>
</svg>
